<svg id="Capa_1" enable-background="new 0 0 512 512" height="512" viewBox="0 0 512 512" width="512" xmlns="http://www.w3.org/2000/svg"><g><g><path d="m400.547 332.851h-30.022v149.141h-340.503l.007-340.256h158.531l-.007-30.008h-188.553v400.265l400.554.007z" fill="#09eaa3"/><path d="m400.547 332.851h-30.022v149.141h-340.503l-30.022 30.001 400.554.007z" fill="#14bb87"/></g><g><path d="m494.772 155.02 2.228-140.01-137.719.035-192.459 192.595 40.623 97.129.106.247 96.948 40.398z" fill="#eaf4f4"/><path d="m494.772 155.02 2.228-140.01-289.555 289.759.106.247 96.948 40.398z" fill="#cae8ea"/><path d="m240.848 409.109 63.651-63.695-137.677-137.774-63.644 63.688 68.835 68.898z" fill="#09eaa3"/><path d="m193.232 294.129h90.048v97.382h-90.048z" fill="#14bb87" transform="matrix(.707 -.707 .707 .707 -172.601 268.737)"/></g><g><path d="m291.961 0v30.026h190.034v190.168h30.005v-220.194z" fill="#09eaa3"/><path d="m481.995 220.194h30.005v-220.194l-30.005 30.026z" fill="#14bb87"/></g></g></svg>