<svg id="Capa_1" enable-background="new 0 0 512 512" height="512" viewBox="0 0 512 512" width="512" xmlns="http://www.w3.org/2000/svg"><g><g><path d="m257.911 391.594-140.01 2.228.035-137.719 192.595-192.459 97.128 40.623.248.106 40.397 96.947z" fill="#eaf4f4"/><path d="m257.911 391.594-140.01 2.228 289.758-289.555.248.106 40.397 96.947z" fill="#cae8ea"/><path d="m400.547 332.851h-30.022v149.141h-340.503l.007-340.256h158.531l-.007-30.008h-188.553v400.265l400.554.007z" fill="#fbdf63"/><path d="m512 137.669-63.696 63.651-137.773-137.676 63.688-63.644 68.898 68.835z" fill="#fbdf63"/><g fill="#f7b521"><path d="m400.687 86.387h90.048v97.382h-90.048z" transform="matrix(.707 -.707 .707 .707 35.109 354.873)"/><path d="m400.547 332.851h-30.022v149.141h-340.503l-30.022 30.001 400.554.007z"/></g></g><path d="m323.084 378.817v30.005h-220.193v-220.039h30.026v190.034z" fill="#fbdf63"/><path d="m323.084 378.817v30.005h-220.193l30.026-30.005z" fill="#f7b521"/></g></svg>