<svg id="Capa_1" enable-background="new 0 0 512 512" height="512" viewBox="0 0 512 512" width="512" xmlns="http://www.w3.org/2000/svg"><g><g><path d="m285.787 363.75v68.27l-116.371 30-117.13-30v-67.09l117.11-116.35.02.02z" fill="#eaf4f4"/><path d="m285.787 363.75v68.27l-116.371 30v-213.42z" fill="#cae8ea"/><path d="m338.833 396.01-21.208 21.22-148.209-148.14-148.218 148.14-21.198-21.22 169.416-169.33z" fill="#09eaa3"/><path d="m52.286 432.02h233.501v79.98h-233.501z" fill="#09eaa3"/><g fill="#14bb87"><path d="m169.416 432.02h116.371v79.98h-116.371z"/><path d="m338.833 396.01-21.208 21.22-148.209-148.14v-42.41z"/></g></g><g><path d="m458.954 148.25v-68.27l-116.37-30-117.131 30v67.09l117.111 116.35.02-.02z" fill="#eaf4f4"/><path d="m458.954 148.25v-68.27l-116.37-30v213.42z" fill="#cae8ea"/><path d="m512 115.99-21.208-21.22-148.208 148.14-148.219-148.14-21.198 21.22 169.417 169.33z" fill="#ff6b81"/><path d="m225.453 0h233.501v79.98h-233.501z" fill="#ff6b81"/><g fill="#ed2061"><path d="m342.584 0h116.371v79.98h-116.371z"/><path d="m512 115.99-21.208-21.22-148.208 148.14v42.41z"/></g></g></g></svg>