<svg id="Layer_1" height="512" viewBox="0 0 512 512" width="512" xmlns="http://www.w3.org/2000/svg" data-name="Layer 1"><path d="m353.46 132.46-257.02 102.71-.56.23 10.56 25.77 256.19-101.88z" fill="#de3c44"/><path d="m331.28 67.57-300.38 85.66 15.24 47.1 39.76 10.71 9.98 24.36.56-.23 257.02-102.71z" fill="#fb6771"/><path d="m85.9 211.04-22.54-6.07-1.79.62c-.54.19-1.08.39-1.6.61l23.9 57.2 20.23-7.93z" fill="#bdcfe5"/><path d="m59.97 206.2 23.9 57.2-.8.32a30.994 30.994 0 0 1 -23.1-57.52z" fill="#d4e1f4"/><path d="m271.02 84.75 15.79 39.01-35.36 13.1-.04-.12-16.77-41.43-.05-.17z" fill="#3090fc"/><path d="m251.41 136.74.04.12-37.31 13.82-17.93-44.28-.08-.29 38.46-10.97.05.17z" fill="#43a2ff"/><path d="m214.14 150.68-38.28 14.19-19.23-47.5 39.5-11.26.08.29z" fill="#3090fc"/><path d="m363.88 330-61.88-106.32-27.55 12.34 72.19 123.98h66.36v-30z" fill="#c0c5d8"/><path d="m310.95 179.84a36.3 36.3 0 0 1 2.8 14.97 41.12 41.12 0 0 1 -39.3 41.09c-.61.03-1.22.04-1.83.04a40.747 40.747 0 0 1 -38.09-25.71z" fill="#6d7486"/><path d="m125.882 223.405-29.442 11.765-.56.23 10.56 25.77 30-12z" fill="#ef737f"/><path d="m125.88 223.4-9.98-24.36-39.76-10.71-14.219-43.946-31.021 8.846 15.24 47.1 39.76 10.71 9.98 24.36.56-.23 29.442-11.765.558-.235z" fill="#ffb0b8"/><path d="m411.222 317.312a61.911 61.911 0 0 1 -54.406-31.644c-9.766-17.4-9.883-37.154-.31-52.85 8.185-13.422 21.258-23.969 33.9-34.169 19.628-15.836 38.167-30.794 35.713-54.194-1.065-10.155-5.019-17.755-12.089-23.221-16.894-13.073-45.553-8.944-45.842-8.9l-1.806-11.864c1.376-.21 33.947-4.967 54.947 11.24 9.69 7.478 15.317 18.074 16.724 31.494 3.136 29.893-18.85 47.631-40.113 64.786-11.843 9.555-24.09 19.437-31.19 31.077-7.281 11.941-7.084 27.166.53 40.727a49.9 49.9 0 0 0 43.942 25.519z" fill="#d4e1f4"/><path d="m364 95h-23.24l14.16 41.585 18.05-16.69z" fill="#6d6e71"/><path d="m443 246h36v198h-36z" fill="#d8894e"/><path d="m409 280h34v130h-34z" fill="#e8a467"/></svg>