<svg height="456pt" viewBox="0 -29 456 456" width="456pt" xmlns="http://www.w3.org/2000/svg"><path d="m272.390625 168.941406-63.621094 104.117188 3.769531-64.457032h-28.929687l7.769531-83.28125h63.761719l-18.011719 43.621094zm0 0" fill="#00efd1"/><path d="m227.671875 398.378906c-26.671875 0-54.449219-7.132812-80.332031-20.625-26.71875-13.953125-49.894532-33.832031-67.753906-58.117187-2.609376-3.5625-1.835938-8.570313 1.726562-11.179688 3.5625-2.613281 8.570312-1.839843 11.179688 1.726563 16.40625 22.304687 37.699218 40.566406 62.246093 53.382812 23.605469 12.308594 48.828125 18.8125 72.933594 18.8125 36.980469 0 76.03125-15.300781 107.144531-41.976562 34.109375-29.167969 55.871094-70.199219 60.882813-114.796875.5-4.390625 4.464843-7.546875 8.855469-7.046875 4.390624.496094 7.546874 4.460937 7.046874 8.851562-5.46875 48.617188-29.1875 93.339844-66.367187 125.136719-33.972656 29.128906-76.820313 45.832031-117.5625 45.832031zm0 0" fill="#fedb41"/><path d="m52.359375 179.871094c-2.277344 0-4.449219-.96875-5.96875-2.667969s-2.242187-3.96875-1.988281-6.230469c5.464844-48.617187 29.1875-93.34375 66.367187-125.140625 33.96875-29.128906 76.816407-45.832031 117.558594-45.832031 26.671875 0 54.449219 7.132812 80.332031 20.628906 26.71875 13.949219 49.894532 33.828125 67.753906 58.113282 2.609376 3.5625 1.835938 8.570312-1.726562 11.179687-3.5625 2.613281-8.570312 1.839844-11.179688-1.726563-16.40625-22.304687-37.699218-40.566406-62.246093-53.382812-23.605469-12.304688-48.828125-18.8125-72.933594-18.8125-36.980469 0-76.03125 15.300781-107.144531 41.976562-34.109375 29.167969-55.867188 70.199219-60.882813 114.796876-.460937 4.039062-3.875 7.09375-7.941406 7.097656zm0 0" fill="#fedb41"/><g fill="#00acea"><path d="m404.921875 146.808594 51.078125 77.882812h-102.160156zm0 0"/><path d="m102.160156 173.691406-51.082031 77.878906-51.078125-77.878906zm0 0"/></g></svg>