<svg id="Capa_1" enable-background="new 0 0 512 512" height="512" viewBox="0 0 512 512" width="512" xmlns="http://www.w3.org/2000/svg"><g><g><path d="m229.293 89.564c-4.204 0-7.611-3.407-7.611-7.611 0-15.181 12.178-17.523 12.178-24.781 0-7.262-12.178-9.598-12.178-24.782 0-15.182 12.178-17.519 12.178-24.778 0-4.204 3.408-7.611 7.611-7.611 4.204 0 7.611 3.407 7.611 7.611 0 15.181-12.178 17.521-12.178 24.778 0 7.266 12.178 9.588 12.178 24.782 0 15.178-12.178 17.524-12.178 24.781.001 4.204-3.407 7.611-7.611 7.611z" fill="#fedba6"/></g><g><path d="m183.438 89.564c-4.204 0-7.611-3.407-7.611-7.611 0-15.181 12.178-17.523 12.178-24.781 0-7.262-12.178-9.598-12.178-24.782 0-15.182 12.178-17.519 12.178-24.778 0-4.204 3.408-7.611 7.611-7.611 4.204 0 7.611 3.407 7.611 7.611 0 15.181-12.178 17.521-12.178 24.778 0 7.266 12.178 9.588 12.178 24.782 0 15.178-12.178 17.524-12.178 24.781.001 4.204-3.407 7.611-7.611 7.611z" fill="#fedba6"/></g><g><path d="m275.149 89.564c-4.204 0-7.612-3.407-7.612-7.611 0-15.181 12.178-17.523 12.178-24.781 0-7.262-12.178-9.598-12.178-24.782 0-15.182 12.178-17.519 12.178-24.778 0-4.204 3.408-7.611 7.612-7.611s7.611 3.407 7.611 7.611c0 15.181-12.178 17.521-12.178 24.778 0 7.266 12.178 9.588 12.178 24.782 0 15.178-12.178 17.524-12.178 24.781 0 4.204-3.408 7.611-7.611 7.611z" fill="#fedba6"/></g><g><g><path d="m318.597 509.599c-7.39 0-14.071-5.077-15.806-12.586l-40.891-176.935c-2.02-8.737 3.427-17.458 12.164-19.477 8.735-2.022 17.458 3.425 19.478 12.165l40.891 176.935c2.02 8.737-3.427 17.458-12.164 19.477-1.231.284-2.461.421-3.672.421z" fill="#8d9ca8"/></g><g><path d="m148.239 484.449c-1.211 0-2.441-.137-3.671-.421-8.737-2.019-14.184-10.739-12.164-19.477l35.079-151.785c2.019-8.738 10.74-14.181 19.477-12.165 8.737 2.019 14.184 10.739 12.164 19.477l-35.079 151.785c-1.735 7.508-8.417 12.586-15.806 12.586z" fill="#8d9ca8"/></g><g><path d="m296.078 411.081h-131.132c-8.407 0-15.223-6.816-15.223-15.223s6.816-15.223 15.223-15.223h131.133c8.407 0 15.223 6.816 15.223 15.223-.001 8.408-6.816 15.223-15.224 15.223z" fill="#8d9ca8"/></g><circle cx="144.442" cy="467.54" fill="#596c76" r="44.46"/><circle cx="144.442" cy="467.54" fill="#9facba" r="18.982"/><path d="m186.96 300.602c-8.737-2.017-17.458 3.426-19.477 12.165l-10.61 45.907c9.404 5.662 19.519 10.262 30.18 13.636l12.071-52.231c2.02-8.738-3.426-17.459-12.164-19.477z" fill="#7a8c98"/><path d="m293.541 312.766c-2.02-8.739-10.742-14.186-19.478-12.165-8.737 2.019-14.184 10.739-12.164 19.477l11.98 51.837c10.647-3.477 20.739-8.177 30.11-13.94z" fill="#7a8c98"/><path d="m423.233 240.253h-77.964v-33.323h77.964c9.202 0 16.661 7.46 16.661 16.661 0 9.203-7.459 16.662-16.661 16.662z" fill="#8d9ca8"/><path d="m88.158 174.109v34.318c0 78.26 63.442 141.701 141.701 141.701 78.259 0 141.701-63.442 141.701-141.701v-34.318z" fill="#e53950"/><path d="m313.855 146.899h-163.034c-5.424 0-9.821-4.397-9.821-9.821v-17.607c0-5.424 4.397-9.821 9.821-9.821h163.035c5.424 0 9.821 4.397 9.821 9.821v17.607c-.001 5.424-4.398 9.821-9.822 9.821z" fill="#aa6a51"/><path d="m423.233 206.931h-40.275c9.202 0 16.661 7.46 16.661 16.661 0 9.202-7.46 16.661-16.661 16.661h40.275c9.202 0 16.661-7.459 16.661-16.661s-7.459-16.661-16.661-16.661z" fill="#7a8c98"/><path d="m331.286 174.109v34.318c0 71.422-52.844 130.492-121.564 140.27 6.579.936 13.3 1.431 20.137 1.431 78.259 0 141.701-63.442 141.701-141.701v-34.318z" fill="#ca2e43"/><path d="m372.39 177.321h-285.061c-8.407 0-15.223-6.816-15.223-15.223 0-8.407 6.816-15.223 15.223-15.223h285.061c8.407 0 15.223 6.816 15.223 15.223 0 8.408-6.816 15.223-15.223 15.223z" fill="#8d9ca8"/><path d="m372.39 146.875h-40.275c8.407 0 15.223 6.816 15.223 15.223s-6.816 15.223-15.223 15.223h40.275c8.407 0 15.223-6.816 15.223-15.223s-6.816-15.223-15.223-15.223z" fill="#7a8c98"/></g></g></svg>