<svg height="455pt" viewBox="-89 0 455 455.87999" width="455pt" xmlns="http://www.w3.org/2000/svg"><path d="m163.910156 373.5h-78.539062c-11.046875-.003906-19.996094-8.957031-20-20v-30.429688c0-17.929687-14.53125-32.460937-32.460938-32.460937-17.933594 0-32.472656-14.535156-32.46875-32.46875v-141.601563h276.296875v141.601563c0 17.929687-14.535156 32.46875-32.46875 32.46875-17.925781.003906-32.453125 14.535156-32.460937 32.460937v30.429688c-.003906 11.042969-8.953125 19.996094-20 20zm0 0" fill="#00acea"/><path d="m243.5 22.019531v94.519531h-44.039062v-94.519531c0-12.160156 9.859374-22.019531 22.019531-22.019531 12.160156 0 22.019531 9.859375 22.019531 22.019531zm0 0" fill="#fedb41"/><path d="m113.269531 373.5h50.640625v82.378906h-50.640625zm0 0" fill="#00efd1"/><path d="m77.71875 22.019531v94.519531h-44.039062v-94.519531c0-12.160156 9.859374-22.019531 22.019531-22.019531 12.160156 0 22.019531 9.859375 22.019531 22.019531zm0 0" fill="#fedb41"/><path d="m178.789062 203.550781-57.609374 94.277344 3.410156-58.367187h-26.199219l7.039063-75.410157h57.730468l-16.300781 39.5zm0 0" fill="#00efd1"/></svg>