<?xml version="1.0"?>
<svg xmlns="http://www.w3.org/2000/svg" xmlns:xlink="http://www.w3.org/1999/xlink" xmlns:svgjs="http://svgjs.com/svgjs" version="1.1" width="512" height="512" x="0" y="0" viewBox="0 0 512 512" style="enable-background:new 0 0 512 512" xml:space="preserve" class=""><g><g xmlns="http://www.w3.org/2000/svg"><g><path d="m463.293 198.236v-49.388l-131.528-148.848h-151.53l-131.528 148.849v49.388h30v-28.71h75.019l-105.019 118.848v49.388h30v-28.71h85.97l-74.376 182.28 13.888 5.667 10.15 11.044 141.661-130.199 141.66 130.199 10.151-11.044 13.889-5.667-74.376-182.28h85.97v28.71h30v-49.388l-105.02-118.849h75.019v28.71zm-240.361-58.71 33.068-33.432 33.068 33.433h-66.136zm66.136 30-33.068 33.433-33.068-33.433zm-87.07-51.495v-66.535l32.904 33.268zm32.904 106.259-32.904 33.268v-66.535zm21.098 21.33 33.068 33.433h-66.136zm21.098-21.33 32.904-33.267v66.535zm0-139.527 32.904-33.267v66.535zm-21.098-21.33-33.068-33.433h66.136zm-84.002 76.093h-75.019l75.019-84.898zm0 139.527h-75.019l75.019-84.898zm114.517 30-30.515 28.046-30.515-28.046zm53.487-114.898 75.019 84.898h-75.019zm0-139.527 75.019 84.898h-75.019zm-196.59 385.95 49.323-120.88 41.099 37.774zm175.853-120.88 49.322 120.879-90.421-83.105z" fill="#ff0000" data-original="#0094ff" style="" class=""/></g><g><path d="m463.293 198.236v-49.388l-131.528-148.848h-75.765v30h33.068l-33.068 33.433v42.661l33.068 33.433h-33.068v30h33.068l-33.068 33.432v42.661l33.068 33.433h-33.068v30h30.515l-30.515 28.046v40.746l141.66 130.199 10.151-11.044 13.889-5.667-74.376-182.28h85.97v28.71h30v-49.388l-105.02-118.849h75.019v28.71zm-186.195-113.473 32.904-33.267v66.535zm0 139.527 32.904-33.267v66.535zm91.49 216.287-90.421-83.105 41.099-37.774zm46.433-161.524h-75.019v-84.898zm-75.019-139.527v-84.898l75.019 84.898z" fill="#b90000" data-original="#005fe3" style="" class=""/></g><g><path d="m0 482h512v30h-512z" fill="#00dc7b" data-original="#00dc7b" style="" class=""/></g><g><path d="m256 482h256v30h-256z" fill="#00aa8e" data-original="#00aa8e" style="" class=""/></g></g></g></svg>
