<svg height="467pt" viewBox="0 -17 467.99 467" width="467pt" xmlns="http://www.w3.org/2000/svg"><g fill="#fedb41"><path d="m195.21875 1.496094h203.5c0 56.195312-45.554688 101.75-101.75 101.75s-101.75-45.554688-101.75-101.75zm0 0"/><path d="m167.988281 16.496094h-34c-4.417969 0-8-3.582032-8-8 0-4.417969 3.582031-8 8-8h34c4.421875 0 8 3.582031 8 8 0 4.417968-3.578125 8-8 8zm0 0"/><path d="m459.988281 16.496094h-34c-4.417969 0-8-3.582032-8-8 0-4.417969 3.582031-8 8-8h34c4.421875 0 8 3.582031 8 8 0 4.417968-3.578125 8-8 8zm0 0"/><path d="m296.988281 170.496094c-4.417969 0-8-3.582032-8-8v-32c0-4.417969 3.582031-8 8-8 4.421875 0 8 3.582031 8 8v32c0 4.417968-3.578125 8-8 8zm0 0"/><path d="m425.109375 136.835938c-2.121094.003906-4.15625-.839844-5.65625-2.339844l-36.859375-36.859375c-3.125-3.125-3.125-8.191407 0-11.316407s8.1875-3.125 11.3125 0l36.859375 36.859376c2.289063 2.289062 2.972656 5.730468 1.734375 8.71875-1.238281 2.992187-4.152344 4.941406-7.390625 4.941406zm0 0"/><path d="m168.828125 136.835938c-3.234375 0-6.152344-1.949219-7.390625-4.9375-1.238281-2.992188-.550781-6.433594 1.734375-8.71875l36.859375-36.863282c3.125-3.121094 8.191406-3.121094 11.316406 0 3.125 3.125 3.125 8.191406 0 11.316406l-36.859375 36.863282c-1.5 1.5-3.535156 2.34375-5.660156 2.339844zm0 0"/><path d="m137.988281 432.496094c-4.417969 0-8-3.582032-8-8v-160c0-4.417969 3.582031-8 8-8 4.421875 0 8 3.582031 8 8v160c0 4.417968-3.578125 8-8 8zm0 0"/></g><path d="m193.988281 433.496094h-111c-4.417969 0-8-3.582032-8-8 0-4.417969 3.582031-8 8-8h111c4.421875 0 8 3.582031 8 8 0 4.417968-3.578125 8-8 8zm0 0" fill="#f4b844"/><path d="m301.78125 289.285156-22.75 45.351563-279.03125-139.921875 22.738281-45.359375zm0 0" fill="#00efd1"/></svg>